<svg version="1.1" xmlns="http://www.w3.org/2000/svg" xmlns:xlink="http://www.w3.org/1999/xlink" width="130.06307" height="218.38653" viewBox="0,0,130.06307,218.38653"><g transform="translate(-169.94095,-77.37142)"><g data-paper-data="{&quot;isPaintingLayer&quot;:true}" fill-rule="nonzero" stroke="#000000" stroke-width="2" stroke-linecap="round" stroke-linejoin="miter" stroke-miterlimit="10" stroke-dasharray="" stroke-dashoffset="0" style="mix-blend-mode: normal"><g><path d="M233.6,109.93333l3.4,-1.2l4.8,-0.8l7,-0.6l6,0.2h6.8l7,1.2l1.8,1.8l-2.6,1.8l-9,-1.2l-7.2,-0.2l-10.4,0.2l-6,1z" fill="#000000"/><path d="M230.8,105.13333l-0.4,-3l-4,-4.4l-4.8,-3.8l3.2,-1.4l4,0.6l3.6,1.6l3.6,2.2l1.4,3.6l5.6,-0.4l0.2,-3.8l-2.4,-0.6l-1.2,-4.2l1.2,-3.8l3.6,-3l7,-6l2.8,2.8l5,3.4l3.4,4l0.2,3.6l-0.8,4.6l-1.6,0.4v2.2l5.6,-0.2l4.4,-3.6l5.2,-2l5.4,-0.4l-3.4,3.8l-3.2,4l-1.6,3.4v1.8l-5.6,-1l-6.8,-0.8l-5.2,-0.8l-6.8,0.2l-6.8,1l-6,1.2l-3.4,0.8z" fill="#000000"/><path d="M197.6,137.33333l-1.6,5.2l-4.2,5.2l-3.6,1.2l-6.6,-3.2l-7.2,-1.2l-3.4,-3.2l0.8,-6l3.8,1l1.2,-2.2l2,0.6l-0.2,4.4l7.8,1.2l3.2,-2.6l0.4,-7.6l4.6,-2.8l-0.2,-3l8.6,-0.4l1.8,-1.4l-0.2,-6.4l5.2,-4.4h2v-2l-5.4,-0.2l-2.6,-1.8l1.8,-2.4l6,-0.4h5.4l2.4,1.2l-0.8,6.4l-6,6.4l0.8,1.8l2.8,0.2l2.4,3.6l5.8,3.2l2.2,1.8l7.2,9.4l-3.2,0.8h-6.4l-4,2h-4l-6.4,-0.8l-5.8,-3.8z" fill="#000000"/><path d="M202.2,121.93333h-6.4l-1.4,-7.2l-1.4,-0.6l-0.4,2.4v5.4l-3.2,-1.4l-1,-4l0.6,-4.6l4.4,-3.8h4l5,2.2l-1,1.2h-3.4l0.4,1.6h3.2l0.8,3.4z" fill="#000000"/><path d="M244.8,125.33333l2.2,-2.6l2.4,-1.4l3.2,-0.4h4.8l2,-1.6l3.6,0.4l6.2,0.4l5.6,1.4l4.6,1.4l2.8,-0.8l0.6,-4.2l2.8,1.6l1,2.4l-1,2.6l0.2,2.2l3.6,1.2l2.8,1.8l-3.2,1.6l-6.8,-1.2l-4.6,-0.2l-3.4,1l0.8,2l3.6,1.2l0.4,2.8l2,1.6l3,1.6v1.6l-5.4,-0.8l-5,-4.2l-4.4,-0.2v2.8l3.4,3.6l0.4,4.2h-5l-3.4,-2.6l-1.6,1.2l3.6,4.8l-0.6,2.4l-5.4,-2.6l-3.6,-3.8l-4.6,-1.8l-0.6,-5.4l-1.4,0.2v7l-5.8,2.8l-6.4,-2.8l-7.6,1.2l-2.4,-1l-2.6,-1.2l-1.2,-2.2l7.8,-0.8l4.4,-1.8l-0.4,-4.2l-11,-13.8l6.6,-2.8l2.8,0.2l6.2,6.8l3,0.4z" fill="#000000"/><path d="M296,138.13333l2.4,4l0.6,7.2l-0.6,6.2l-4.6,7.2l-8.8,6.8l-10.4,3.8l-13.8,0.2l-11,-0.6l-11,-0.6l-8.8,-2l-5.6,-1.6l-7.4,-1.8l-7.4,-0.6l-6.8,1.2l-4,3.2v4.8l3,2.8h7l4.2,-2.4l0.2,-5l15.4,1.6l0.4,4.4l-1,5.6l-3.6,7l-6.4,5.2l-6.4,2.8l-8.8,1.6l-8,-0.8l-8,-4.2l-4.8,-6.6l-3.6,-5v-7.6l0.4,-4.8l1.2,-7l4.8,-5l6.4,-4.8l8.4,-4l6.2,-2h7.4l8.2,1l6,3h4l1.6,-1.2h5.2l2.8,1.2h7.8l2.6,-2l2.4,-1l3.8,1.8l4.4,4l3.6,0.8l4.8,0.8l1,-2.8l-2.8,-3.2h4.4l2.8,-2l0.8,-3l-2,-4l6.4,3.2l4.8,-0.2l3.2,-3.2l-2.4,-2.4l-5.2,-4.8l11,0.2z" fill="#000000"/><path d="M281.2,181.13333l3.6,4.6l1.6,5.2v5.6l-2,7.6l-2,6l-4.8,5l-8,4.2l-11.2,2.4l-10,-0.2l-9.6,-0.6l-8.8,-2l-6.4,-1.2l-5.8,-0.2l-4.6,0.6l-1.2,4.4l2.6,2.6l6.2,0.6l4.4,-0.8h6.4h7.2l9.4,1.2l9.8,-0.2l9,-1l7.4,-0.4l2.2,1.4l4,5.8l0.4,7.6l-1.4,6l-4.4,6.2l-6.6,3.2l-10.4,-0.6l-12.2,-0.4l-6.6,-0.6h-8.6l-4.4,2.6v3.8l2.8,2.8l4.6,0.4h4.4l5.8,-1l5.6,-1.4l6.8,1.6l4.8,4.8l1,4.2l0.2,5.2l-2.8,5.6l-4.8,3l-9,0.4l-7,-0.4l-1.6,1.2l0.2,5l1.6,2.6l-5.4,-2.4l-2.8,-2.6l-1,-4l1.4,-3.8l2.4,-3.2l3.2,-0.4h5l5,-0.2l2.4,-0.6l2,-3.2l-0.8,-2.2l-4,-0.6l-4.8,1.8l-4.4,1l-6.8,0.4h-6.8l-4.2,-2l-4.8,-3.8l-2.6,-4.6l-0.2,-3.6l0.2,-4.8l2.4,-4.4l3.6,-5.4l5.8,-0.6l4.8,-0.8l8.2,-1.4l4.4,-1.2l6,-0.2h7.8l9.2,0.2l1.4,-2.6l-1.4,-1.2h-15.4l-16.2,3.2l-9.4,1.4l-6.6,-0.6l-7,-1l-4.4,-1.8l-7.2,-5.4l-2.4,-3.6l-1,-3.8l-0.6,-5.2l-0.2,-4.4l1.4,-5.6l3,-5.6h7.2l5.2,-1l5.4,-2.6l2,-1.8h1.4h5.4l3.4,0.6l6.8,1.8l5,0.6l5.2,0.6h6.8l5,-1l4,-2v-4.2l-2.8,-2.2h-5h-6.6l-8.2,0.6l-6.8,0.8l-6,0.4l3.2,-3.4l3.2,-4l0.8,-6l0.4,-4.8v-1.8l5.2,0.8l5.2,1.4h6h4.6h8.2l8,-0.2l7.2,-0.2z" fill="#000000"/><path d="M256.8,130.93333l-2.8,-0.8l-6.2,-1.4l-0.4,-1.4l2,-0.8l7,1.6z" fill="#ffffff"/></g></g></g></svg>
