<svg version="1.1" xmlns="http://www.w3.org/2000/svg" xmlns:xlink="http://www.w3.org/1999/xlink" width="86.40239" height="138.88778" viewBox="0,0,86.40239,138.88778"><g transform="translate(-196.801,-110.64985)"><g data-paper-data="{&quot;isPaintingLayer&quot;:true}" fill-rule="nonzero" stroke="#000000" stroke-width="2" stroke-linejoin="miter" stroke-miterlimit="10" stroke-dasharray="" stroke-dashoffset="0" style="mix-blend-mode: normal"><g><path d="M239.14812,129.33689c0,-0.2752 0.2231,-0.4983 0.4983,-0.4983c0.2752,0 0.4983,0.2231 0.4983,0.4983c0,0.2752 -0.2231,0.49829 -0.4983,0.49829c-0.2752,0 -0.4983,-0.22309 -0.4983,-0.49829z" fill="#000000" stroke-linecap="butt"/><path d="M241.15222,132.23976c0,-0.2752 0.22309,-0.49829 0.49829,-0.49829c0.2752,0 0.4983,0.22309 0.4983,0.49829c0,0.2752 -0.2231,0.4983 -0.4983,0.4983c-0.2752,0 -0.49829,-0.2231 -0.49829,-0.4983z" fill="#000000" stroke-linecap="butt"/><path d="M237.01471,132.34645c0,-0.2752 0.2231,-0.49829 0.4983,-0.49829c0.2752,0 0.4983,0.22309 0.4983,0.49829c0,0.2752 -0.2231,0.4983 -0.4983,0.4983c-0.2752,0 -0.4983,-0.2231 -0.4983,-0.4983z" fill="#000000" stroke-linecap="butt"/><path d="M226.93533,132.35328c0,-0.2752 0.22309,-0.49829 0.49829,-0.49829c0.2752,0 0.4983,0.22309 0.4983,0.49829c0,0.2752 -0.2231,0.4983 -0.4983,0.4983c-0.2752,0 -0.49829,-0.2231 -0.49829,-0.4983z" fill="#000000" stroke-linecap="butt"/><path d="M250.90939,132.41004c0,-0.2752 0.2231,-0.49829 0.49829,-0.49829c0.2752,0 0.4983,0.22309 0.4983,0.49829c0,0.2752 -0.2231,0.4983 -0.4983,0.4983c-0.2752,0 -0.49829,-0.2231 -0.49829,-0.4983z" fill="#000000" stroke-linecap="butt"/><path d="M261.06958,135.11098c0,-0.2752 0.2231,-0.4983 0.49829,-0.4983c0.2752,0 0.4983,0.2231 0.4983,0.4983c0,0.2752 -0.2231,0.49829 -0.4983,0.49829c-0.2752,0 -0.49829,-0.22309 -0.49829,-0.49829z" fill="#000000" stroke-linecap="butt"/><path d="M268.24599,139.4762c0,-0.2752 0.22309,-0.4983 0.49829,-0.4983c0.2752,0 0.4983,0.2231 0.4983,0.4983c0,0.2752 -0.2231,0.49829 -0.4983,0.49829c-0.2752,0 -0.49829,-0.22309 -0.49829,-0.49829z" fill="#000000" stroke-linecap="butt"/><path d="M217.56623,135.22646c0,-0.2752 0.2231,-0.49829 0.4983,-0.49829c0.2752,0 0.4983,0.22309 0.4983,0.49829c0,0.2752 -0.2231,0.4983 -0.4983,0.4983c-0.2752,0 -0.4983,-0.2231 -0.4983,-0.4983z" fill="#000000" stroke-linecap="butt"/><path d="M210.41462,139.50099c0,-0.2752 0.2231,-0.49829 0.4983,-0.49829c0.2752,0 0.4983,0.22309 0.4983,0.49829c0,0.2752 -0.2231,0.4983 -0.4983,0.4983c-0.2752,0 -0.4983,-0.2231 -0.4983,-0.4983z" fill="#000000" stroke-linecap="butt"/><g fill="#000000"><path d="M237.62066,120.63454c0,-1.32407 1.07337,-2.39744 2.39744,-2.39744c1.32406,0 2.39746,1.07337 2.39746,2.39744c0,1.32407 -1.0734,2.39744 -2.39746,2.39744c-1.32406,0 -2.39744,-1.07337 -2.39744,-2.39744z" stroke-linecap="butt"/><path d="M239.49093,111.64985l0.27205,7.07333" stroke-linecap="round"/><path d="M236.40768,114.09831h6.07581" stroke-linecap="round"/></g><g fill="none" stroke-linecap="round"><path d="M228.60889,125.34308l1.63231,1.90435l3.44598,0.90684l2.08572,-1.63231l0.36274,-1.63231l-1.54162,-1.45094"/><path d="M228.42752,123.25736l-2.08572,1.81368l-2.81119,0.45341l-1.90436,-0.27205l-1.90436,-1.63231l-3.26461,-0.18136l-3.08324,1.36025l-0.90684,1.81367l-0.51046,2.75275l0.36274,2.08572l1.99504,1.72299l2.17641,1.45094"/><path d="M212.13811,127.46104h-1.63231l-1.99504,0.45342l-1.99504,1.36025l-1.0882,1.45094l-0.36274,1.81367l0.72547,1.72299l1.63231,2.72051l1.99504,1.72299"/></g><g data-paper-data="{&quot;index&quot;:null}" fill="none" stroke-linecap="round"><path d="M251.27136,125.36577l-1.63231,1.90436l-3.44598,0.90684l-2.08572,-1.63231l-0.36273,-1.63231l1.54162,-1.45094"/><path d="M251.45273,123.28004l2.08572,1.81368l2.81119,0.45342l1.90435,-0.27205l1.90436,-1.63231l3.26461,-0.18136l3.08324,1.36026l0.90684,1.81367l0.51045,2.75275l-0.36274,2.08572l-1.99504,1.72299l-2.17641,1.45094"/><path d="M267.74214,127.48373h1.6323l1.99504,0.45342l1.99504,1.36025l1.08821,1.45094l0.36274,1.81367l-0.72547,1.72299l-1.6323,2.72051l-1.99504,1.72299"/></g><path d="M230.78459,144.27012l-6.8178,0.66515l-4.7392,0.66515l-2.99318,2.57746l-5.07177,-6.90094l5.65378,0.16628l1.24716,-4.82234l5.48749,2.99318l2.49432,-0.7483l1.98506,-3.74147l6.06951,3.99091l5.73692,-4.65606l5.48749,4.32348l2.66061,-0.66515l3.24261,-2.6606l3.15946,4.57291l2.16174,0.08315l4.90549,-3.57519l0.99772,5.23806l4.24033,0.16629l-3.90776,5.82007l-1.75966,-1.3303l-3.65833,-1.33031l-3.32575,-0.58201l-3.82462,-0.16629h-4.57291l-4.07405,-0.08314l-4.57291,-0.33258l-3.15947,-0.08314z" fill="#000000" stroke-linecap="round"/><path d="M216.95718,148.91998l1.86861,1.86861l2.49149,0.87202l1.74403,0.24915l1.74404,3.11435l1.74404,0.99659l-0.74744,0.87202l-2.11776,-0.87202l-3.61265,-1.86861l-1.49489,0.4983l-0.74744,0.99659l0.37373,1.37032l0.99659,0.9966l0.87202,1.12116v3.73722l-2.36691,2.36691l-2.98978,0.4983l-2.3669,-0.12457l-1.95378,-0.74744l-3.61265,-2.74063l0.24915,2.61606l2.24233,2.49148l-4.11095,0.4983l-2.61606,1.74403l-1.61946,1.99319l-1.86861,3.44526l-1.24574,4.8584l0.37372,4.23552l1.74404,3.8618l3.23893,2.8652l2.98978,3.23893l3.61265,5.05791l3.61265,4.98297l0.62287,-4.23553l2.74063,1.86862l2.74063,3.11436l1.61946,2.49148l0.62287,3.48808l-0.74744,2.74063l-2.11776,1.37032l-1.99319,-1.86861l1.86862,-0.87202l0.24915,-2.86521l-1.49489,-1.12117h-1.99319l-1.99318,2.11776l-0.4983,3.36351l1.49489,2.36691l3.48808,1.74404v2.05791h4.73382l-0.24915,1.61946l-3.23893,4.23552l-0.87202,-0.37372l-1.37032,-2.74063l-1.74403,0.24915l-1.24574,1.49489v2.11776l1.99319,0.74744h1.49489l-6.47786,9.34306l0.4983,2.04088l2.49148,1.24574h1.86862l4.98297,-9.21849l1.86862,1.12117l0.49829,1.86861l2.61606,-0.24914l0.37372,-1.61946l-0.49829,-1.86862l-2.36691,-0.24914l-1.37031,-0.87202l4.11094,-5.60584l1.61946,1.37032l0.62287,3.73722l2.11776,1.37032l2.24234,0.99659l2.36691,2.49149l0.62287,4.3601l-1.99319,-1.86861l-2.11776,-2.36691l-2.86521,0.62287l-1.12117,2.49149l1.37032,3.3635l1.74404,0.87202h2.61606h2.74063l1.99319,-1.74404v2.74063l-2.36691,2.11776l-0.24915,1.99318l1.49489,0.62287l1.61947,-1.12116v2.74063l2.24233,0.4983l0.37372,-1.49489l-0.12457,-2.36691l2.11776,1.86861l1.37032,0.37373l0.24915,-1.37032l-1.99319,-2.61606l-1.74404,-1.99318l-0.12457,-1.24574l2.98978,1.49489l2.49148,0.4983h3.98638l1.99318,-2.36691l0.24915,-3.11435l-1.61946,-2.24233l-2.36691,-0.74744l-1.24574,0.49829l-1.49489,1.37032l-0.74744,1.74404l-0.4983,-3.48808l2.11776,-2.11776l2.49149,-0.37372l1.49489,-0.87202l1.74404,-6.10413l2.28128,1.59221l0.74745,2.86521l1.74404,2.86521l1.86861,1.24574l1.99318,1.12117l2.36691,2.36691v1.99318l-0.4983,3.11436h2.74063l2.24234,-0.87202l1.49489,-1.61947l0.4983,-2.86521l-2.24234,0.24915l-1.74404,-0.4983l-1.12117,-0.74744l-0.37372,-3.11435l-1.24574,-4.48468l-1.99319,-1.12116l-1.99319,-1.74404l-1.37032,-0.74744v-2.24233h4.60924l0.74745,-2.11776l2.74063,-1.86861l0.9966,-5.48127l-1.49489,-3.36351l-3.48808,-0.87202l-1.37032,1.49489l-0.37372,2.49149l2.3669,2.98978l-2.61606,0.87202l-1.99318,-1.12117l-0.4983,-3.98637l0.87202,-1.82239l6.47786,-7.7236l1.61946,4.23552l1.74404,-3.3635l1.49489,-3.61265l4.48467,-3.11435l3.23893,-4.3601l2.74063,-1.99318l1.74404,-3.98638l-0.24915,-1.12116l0.4983,-4.72507l-1.49489,-4.98296l-2.36691,-3.23893l-3.48808,-2.61606l-5.60583,-0.37372l1.99318,-1.74404l0.24915,-1.74403l-3.3635,1.49489l-4.23552,0.4983l2.86521,-2.98978l3.48807,-5.23212l2.98978,-5.48126l-0.12457,-3.17568l-2.61606,0.87202l-3.73722,5.48127l-5.60584,8.22189l-1.61946,-4.85839l2.11776,-1.61946l-0.87202,-2.98978l-1.99319,0.37372l-5.23212,2.86521l-0.49829,-1.12117l1.49489,-1.86861v-1.99319l7.7236,-3.73722l-2.74063,-0.37373l-3.73722,0.12457l-2.98978,-0.74744l-3.48808,-0.74744l-9.59221,2.98978l-2.52021,-1.24574l-4.73382,-1.24574h-5.97956l-4.73382,0.87202z" fill="#000000" stroke-linecap="round"/><path d="M215.76107,160.7409l0.49829,-3.73722l-1.99318,-1.99319l-4.73382,-2.36691l-1.24574,-2.24233l0.24914,-4.60924l-2.49148,0.62287l-1.49489,-1.12117l-0.62287,1.99319l-2.11776,1.24574l4.3601,2.49148l1.12116,2.74063l-0.24915,2.86521l2.24234,2.98978l2.49148,1.99319l1.99319,0.87202v2.11776l2.24233,-0.12457l1.74403,-1.37032v-1.12117z" fill="#000000" stroke-linecap="round"/><g fill="#ffffff" stroke-linecap="round"><path d="M254.62821,168.77837l-1.99319,-2.74063l-3.98637,-3.73722l-6.10414,-2.49149l-4.60924,0.24915l-5.48127,1.61947l-3.8618,2.24233l-3.8618,4.60924l4.23552,-0.74745l3.48808,-0.4983l6.22871,-0.12457l5.85498,0.12457l6.72701,1.12117z"/><path d="M221.98978,178.78519l0.24914,8.09732l2.98978,-0.62287l4.8584,-0.87202l5.48126,-0.87202l7.34987,-0.24914l5.97956,0.99659l7.34987,1.86861l0.12458,-7.97275l-5.23211,-1.61946l-6.47786,-0.74744l-5.60584,-0.24915l-5.48127,0.37372l-5.10754,0.62287l-2.74063,0.99659z"/><path d="M227.72019,203.26986l-0.62287,-2.61606l-2.74063,-4.23552l4.48467,-1.37031l5.35668,-0.74744l5.48127,-0.4983l5.23211,0.4983l4.98297,0.87202l3.98637,1.12116l-1.74403,2.74063v3.73722l-3.36351,-0.99659l-5.60584,-0.24915h-3.98638l-5.97956,0.37373z"/><path d="M247.65206,220.50538l1.49489,-7.47445l-3.48808,-1.37031l-4.48467,-0.37372h-3.73722l-7.47445,1.12117l1.86862,8.59562l3.8618,-1.61947h4.23552l2.49149,0.62287l2.49148,0.87202z"/></g></g></g></g></svg>