<svg version="1.1" xmlns="http://www.w3.org/2000/svg" xmlns:xlink="http://www.w3.org/1999/xlink" width="116.97325" height="218.34129" viewBox="0,0,116.97325,218.34129"><g transform="translate(-182.86492,-70.08308)"><g data-paper-data="{&quot;isPaintingLayer&quot;:true}" fill-rule="nonzero" stroke="#000000" stroke-width="2" stroke-linecap="round" stroke-linejoin="miter" stroke-miterlimit="10" stroke-dasharray="" stroke-dashoffset="0" style="mix-blend-mode: normal"><g><path d="M238.93334,103.63611l-21.75,11.25v-30.75l21.75,11.5l-10.9983,-24.50339l31.9983,1.00339l-12.5,23.5l24,-11.75l-0.25,31.5l-23.25,-12l11.75,22.25l-29.5,0.75z" fill="#000000"/><path d="M298.33706,270.825l-2.97963,4.96605l-3.72454,4.46944l-3.72454,1.73812l-38.23858,0.24831l-5.21436,1.24151l-5.95926,3.72454l-6.95247,-5.21436l-4.96605,-0.7449l-26.81667,0.2483h-6.45586l-5.21435,-2.97963l-3.22794,-3.97284l-0.49661,-24.18333l-0.2483,-50.97963l-0.2483,-53.63333l114.96405,0.99321l-0.24831,54.62654l-0.2483,48z" fill="#000000"/><path d="M193.8017,173.39244l-0.4966,51.99321v50.1571l8.44228,2.48302l-0.49661,-12.41512l38.98349,-0.2483l-0.2483,-17.87778h-39.23179l-0.4966,-15.64306l37.99028,-0.74491l-0.2483,-16.48595h-36.99707l-0.2483,-14.89815h39.23179v-17.38118l-37.24537,-0.7449l-0.24831,-16.43163l37.49367,-0.49661v-11.91852l-45.43935,-0.4966z" fill="#ffffff"/><path d="M255.13241,272.06651l-2.23472,-2.23472l-0.74491,-4.71775l-3.72454,-0.4966l-1.98642,-2.97963l1.24151,-2.48302h4.71775v-6.20756l1.48981,-3.22793h1.98642l1.48981,1.24151v7.69738l2.97963,-0.74491l2.97963,1.24151l-0.4966,6.45586l-2.23472,-1.48981l-2.73133,0.74491l-0.99321,2.73133v5.95926z" fill="#ffffff"/><path d="M281.20417,273.55633l-2.97963,-1.98642l-0.4966,-5.95926l-3.47623,-0.2483l-1.73812,-1.24151v-2.97963l1.24151,-1.48981h4.22114l0.2483,-5.95926l1.48981,-2.97963h2.48302l1.48981,1.98642v5.21435h3.47623l1.73812,1.73812l0.2483,6.70417l-2.23472,-1.98642l-2.73133,0.74491l-0.74491,1.73812v7.69738z" fill="#ffffff"/><path d="M268.07809,253.97438l-2.23472,-2.23472l-0.74491,-4.71775l-3.72454,-0.4966l-1.98642,-2.97963l1.24151,-2.48302h4.71775v-6.20756l1.48981,-3.22793h1.98642l1.48981,1.24151v7.69738l2.97963,-0.74491l2.97963,1.24151l-0.4966,6.45586l-2.23472,-1.48981l-2.73133,0.74491l-0.99321,2.73133v5.95926z" fill="#ffffff"/><path d="M254.70371,238.11697l-2.23472,-2.23472l-0.74491,-4.71775l-3.72454,-0.4966l-1.98642,-2.97963l1.24151,-2.48302h4.71775v-6.20756l1.48981,-3.22793h1.98642l1.48981,1.24151v7.69738l2.97963,-0.74491l2.97963,1.24151l-0.4966,6.45586l-2.23472,-1.48981l-2.73133,0.74491l-0.99321,2.73133v5.95926z" fill="#ffffff"/><path d="M280.06451,235.6679l-2.23472,-2.23472l-0.74491,-4.71775l-3.72454,-0.4966l-1.98642,-2.97963l1.24151,-2.48302h4.71775v-6.20756l1.48981,-3.22793h1.98642l1.48981,1.24151v7.69738l2.97963,-0.74491l2.97963,1.24151l-0.4966,6.45586l-2.23472,-1.48981l-2.73133,0.74491l-0.99321,2.73133v5.95926z" fill="#ffffff"/><path d="M267.18673,217.82407l-2.23472,-2.23472l-0.74491,-4.71775l-3.72454,-0.4966l-1.98642,-2.97963l1.24151,-2.48302h4.71775v-6.20756l1.48981,-3.22793h1.98642l1.48981,1.24151v7.69738l2.97963,-0.74491l2.97963,1.24151l-0.4966,6.45586l-2.23472,-1.48981l-2.73133,0.74491l-0.99321,2.73133v5.95926z" fill="#ffffff"/><path d="M252.81914,199.48363l-2.23472,-2.23472l-0.74491,-4.71775l-3.72454,-0.4966l-1.98642,-2.97963l1.24151,-2.48302h4.71775v-6.20756l1.48981,-3.22793h1.98642l1.48981,1.24151v7.69738l2.97963,-0.74491l2.97963,1.24151l-0.4966,6.45586l-2.23472,-1.48981l-2.73133,0.74491l-0.99321,2.73133v5.95926z" fill="#ffffff"/><path d="M267.99954,183.62623l-2.23472,-2.23472l-0.74491,-4.71775l-3.72454,-0.4966l-1.98642,-2.97963l1.24151,-2.48302h4.71775v-6.20756l1.48981,-3.22793h1.98642l1.48981,1.24151v7.69738l2.97963,-0.74491l2.97963,1.24151l-0.4966,6.45586l-2.23472,-1.48981l-2.73133,0.74491l-0.99321,2.73133v5.95926z" fill="#ffffff"/><path d="M282.93164,198.06172l-2.23472,-2.23472l-0.74491,-4.71775l-3.72454,-0.4966l-1.98642,-2.97963l1.24151,-2.48302h4.71775v-6.20756l1.48981,-3.22793h1.98642l1.48981,1.24151v7.69738l2.97963,-0.74491l2.97963,1.24151l-0.4966,6.45586l-2.23472,-1.48981l-2.73133,0.74491l-0.99321,2.73133v5.95926z" fill="#ffffff"/></g></g></g></svg>